STARTFONT 2.1
FONT -sun-chevaraoutline-medium-r-normal--12-120-75-75-p-100-adobe-fontspecific
SIZE 12 75 75
FONTBOUNDINGBOX 26 17 -4 -4

STARTPROPERTIES 28
FOUNDRY "sun"
FAMILY_NAME "chevaraoutline"
WEIGHT_NAME "medium"
SLANT "r"
SETWIDTH_NAME "normal"
ADD_STYLE_NAME ""
PIXEL_SIZE 12
POINT_SIZE 120
RESOLUTION_X 75
RESOLUTION_Y 75
SPACING "p"
AVERAGE_WIDTH 100
CHARSET_REGISTRY "adobe"
CHARSET_ENCODING "fontspecific"
COPYRIGHT "© 1999 Sun Microsystems, Inc."
RAW_PIXELSIZE 1000
RAW_POINTSIZE 964
RAW_ASCENT 1047
RAW_DESCENT 285
RAW_AVERAGE_WIDTH 8051
FACE_NAME "ChevaraOutlineNormal¿ŸD@5"
_XMBDFED_INFO "Edited with xmbdfed 2.4."
WEIGHT 10
X_HEIGHT -1
QUAD_WIDTH 10
DEFAULT_CHAR 4
FONT_DESCENT 4
FONT_ASCENT 13
ENDPROPERTIES

CHARS 202

STARTCHAR char32
ENCODING 32
SWIDTH 43 0
DWIDTH 6 0
BBX 0 0 0 0
BITMAP
ENDCHAR

STARTCHAR char33
ENCODING 33
SWIDTH 35 0
DWIDTH 5 0
BBX 3 9 2 0
BITMAP
E0
A0
A0
E0
40
40
E0
A0
E0
ENDCHAR

STARTCHAR char34
ENCODING 34
SWIDTH 43 0
DWIDTH 6 0
BBX 6 3 1 6
BITMAP
FC
FC
24
ENDCHAR

STARTCHAR char35
ENCODING 35
SWIDTH 50 0
DWIDTH 7 0
BBX 6 9 0 0
BITMAP
24
24
7C
28
28
38
C8
48
48
ENDCHAR

STARTCHAR char36
ENCODING 36
SWIDTH 20 0
DWIDTH 13 0
BBX 11 12 3 -2
BITMAP
0E00
7B40
CAC0
CA40
BF00
CAC0
BE20
CBA0
FAE0
8F80
0A00
0A00
ENDCHAR

STARTCHAR char37
ENCODING 37
SWIDTH 56 0
DWIDTH 18 0
BBX 16 9 3 0
BITMAP
7820
6C20
AA40
BA4E
6CBB
392B
022B
022B
041E
ENDCHAR

STARTCHAR char38
ENCODING 38
SWIDTH 20 0
DWIDTH 13 0
BBX 11 9 3 0
BITMAP
3E00
3100
3B00
2CE0
36C0
EA80
A700
A580
7FC0
ENDCHAR

STARTCHAR char39
ENCODING 39
SWIDTH 21 0
DWIDTH 3 0
BBX 2 3 1 6
BITMAP
40
C0
C0
ENDCHAR

STARTCHAR char40
ENCODING 40
SWIDTH 43 0
DWIDTH 6 0
BBX 5 9 1 0
BITMAP
18
70
60
A0
A0
A0
70
30
38
ENDCHAR

STARTCHAR char41
ENCODING 41
SWIDTH 43 0
DWIDTH 6 0
BBX 4 9 1 0
BITMAP
C0
60
50
50
50
50
50
60
40
ENDCHAR

STARTCHAR char42
ENCODING 42
SWIDTH 28 0
DWIDTH 4 0
BBX 4 4 1 5
BITMAP
40
F0
40
A0
ENDCHAR

STARTCHAR char43
ENCODING 43
SWIDTH 64 0
DWIDTH 9 0
BBX 7 7 2 0
BITMAP
10
10
10
FE
10
10
10
ENDCHAR

STARTCHAR char44
ENCODING 44
SWIDTH 28 0
DWIDTH 4 0
BBX 3 4 1 -2
BITMAP
E0
A0
60
40
ENDCHAR

STARTCHAR char45
ENCODING 45
SWIDTH 43 0
DWIDTH 6 0
BBX 5 1 1 4
BITMAP
F8
ENDCHAR

STARTCHAR char46
ENCODING 46
SWIDTH 28 0
DWIDTH 4 0
BBX 3 3 1 0
BITMAP
C0
A0
E0
ENDCHAR

STARTCHAR char47
ENCODING 47
SWIDTH 50 0
DWIDTH 7 0
BBX 7 9 1 0
BITMAP
02
04
04
08
10
20
20
40
80
ENDCHAR

STARTCHAR char48
ENCODING 48
SWIDTH 13 0
DWIDTH 12 0
BBX 11 9 2 0
BITMAP
3F00
3180
5140
9120
9120
9120
5140
31C0
1F00
ENDCHAR

STARTCHAR char49
ENCODING 49
SWIDTH 57 0
DWIDTH 8 0
BBX 7 9 2 0
BITMAP
18
E8
48
48
48
48
48
48
FE
ENDCHAR

STARTCHAR char50
ENCODING 50
SWIDTH 6 0
DWIDTH 11 0
BBX 10 9 2 0
BITMAP
7F00
8480
F480
9580
6700
1840
7F80
E080
1F80
ENDCHAR

STARTCHAR char51
ENCODING 51
SWIDTH 6 0
DWIDTH 11 0
BBX 10 9 2 0
BITMAP
7F00
E280
E280
4500
1F00
4280
A2C0
A280
7F00
ENDCHAR

STARTCHAR char52
ENCODING 52
SWIDTH 6 0
DWIDTH 11 0
BBX 10 9 2 0
BITMAP
0100
0700
0900
3900
4900
4900
F9C0
0900
1F80
ENDCHAR

STARTCHAR char53
ENCODING 53
SWIDTH 6 0
DWIDTH 11 0
BBX 9 9 2 0
BITMAP
7F80
4300
FC00
FE00
8300
4280
A280
A280
7F00
ENDCHAR

STARTCHAR char54
ENCODING 54
SWIDTH 13 0
DWIDTH 12 0
BBX 10 9 2 0
BITMAP
3F00
2A80
5180
9F00
9180
9140
5140
31C0
1F00
ENDCHAR

STARTCHAR char55
ENCODING 55
SWIDTH 71 0
DWIDTH 10 0
BBX 9 9 2 0
BITMAP
7F80
8180
FF00
8600
0A00
1400
1400
2400
1C00
ENDCHAR

STARTCHAR char56
ENCODING 56
SWIDTH 13 0
DWIDTH 12 0
BBX 10 9 2 0
BITMAP
3F00
E0C0
B880
4E80
2180
DC40
4340
40C0
3F80
ENDCHAR

STARTCHAR char57
ENCODING 57
SWIDTH 13 0
DWIDTH 12 0
BBX 10 9 2 0
BITMAP
3F00
5280
92C0
9240
7240
1D40
3240
5280
3F00
ENDCHAR

STARTCHAR char58
ENCODING 58
SWIDTH 35 0
DWIDTH 5 0
BBX 3 7 2 0
BITMAP
E0
A0
E0
00
E0
A0
E0
ENDCHAR

STARTCHAR char59
ENCODING 59
SWIDTH 35 0
DWIDTH 5 0
BBX 3 9 2 -2
BITMAP
E0
A0
E0
00
40
A0
A0
60
80
ENDCHAR

STARTCHAR char60
ENCODING 60
SWIDTH 57 0
DWIDTH 8 0
BBX 6 6 1 0
BITMAP
0C
70
80
C0
38
04
ENDCHAR

STARTCHAR char61
ENCODING 61
SWIDTH 64 0
DWIDTH 9 0
BBX 9 3 1 2
BITMAP
FF80
0000
FF80
ENDCHAR

STARTCHAR char62
ENCODING 62
SWIDTH 57 0
DWIDTH 8 0
BBX 6 6 1 0
BITMAP
C0
30
0C
18
60
80
ENDCHAR

STARTCHAR char63
ENCODING 63
SWIDTH 57 0
DWIDTH 8 0
BBX 7 9 1 0
BITMAP
3C
E6
AA
72
1C
10
30
28
38
ENDCHAR

STARTCHAR char64
ENCODING 64
SWIDTH 27 0
DWIDTH 14 0
BBX 9 9 2 0
BITMAP
3E00
4100
DE80
A680
A480
A580
DE00
4100
3E00
ENDCHAR

STARTCHAR char65
ENCODING 65
SWIDTH 20 0
DWIDTH 13 0
BBX 13 9 2 0
BITMAP
0200
0600
0500
0D80
1480
12C0
3E40
6120
F3F0
ENDCHAR

STARTCHAR char66
ENCODING 66
SWIDTH 20 0
DWIDTH 13 0
BBX 12 9 2 0
BITMAP
FFC0
28A0
28A0
28A0
2F40
28A0
28B0
28A0
3FC0
ENDCHAR

STARTCHAR char67
ENCODING 67
SWIDTH 13 0
DWIDTH 12 0
BBX 11 9 2 0
BITMAP
1FA0
6860
5020
9020
9000
9000
5020
2840
1F80
ENDCHAR

STARTCHAR char68
ENCODING 68
SWIDTH 27 0
DWIDTH 14 0
BBX 13 9 2 0
BITMAP
FFC0
28B0
2850
2848
2848
2848
2858
2870
3FC0
ENDCHAR

STARTCHAR char69
ENCODING 69
SWIDTH 20 0
DWIDTH 13 0
BBX 11 9 2 0
BITMAP
7FE0
2860
2820
2880
2F80
2880
2820
2860
FFE0
ENDCHAR

STARTCHAR char70
ENCODING 70
SWIDTH 13 0
DWIDTH 12 0
BBX 11 9 2 0
BITMAP
7FE0
28E0
2820
2900
2F00
2900
2800
2800
FE00
ENDCHAR

STARTCHAR char71
ENCODING 71
SWIDTH 27 0
DWIDTH 14 0
BBX 13 9 3 0
BITMAP
1FC0
7040
B040
A000
A3E0
A120
A120
5120
3FE0
ENDCHAR

STARTCHAR char72
ENCODING 72
SWIDTH 34 0
DWIDTH 15 0
BBX 14 9 3 0
BITMAP
FDFC
4890
4890
4890
4F90
4890
4890
4890
F970
ENDCHAR

STARTCHAR char73
ENCODING 73
SWIDTH 57 0
DWIDTH 8 0
BBX 7 9 2 0
BITMAP
FE
48
48
48
48
48
48
48
FE
ENDCHAR

STARTCHAR char74
ENCODING 74
SWIDTH 71 0
DWIDTH 10 0
BBX 10 9 1 0
BITMAP
1FC0
0900
0900
0900
0900
3900
D900
9900
7E00
ENDCHAR

STARTCHAR char75
ENCODING 75
SWIDTH 34 0
DWIDTH 15 0
BBX 14 9 3 0
BITMAP
FFFC
4860
4880
4900
4E80
4A40
4960
48B0
FDF8
ENDCHAR

STARTCHAR char76
ENCODING 76
SWIDTH 13 0
DWIDTH 12 0
BBX 11 9 2 0
BITMAP
FE00
2800
2800
2800
2800
2800
2820
28E0
1FE0
ENDCHAR

STARTCHAR char77
ENCODING 77
SWIDTH 56 0
DWIDTH 18 0
BBX 16 9 3 0
BITMAP
F81F
2C2C
342C
3254
2B54
2594
2514
2314
F33F
ENDCHAR

STARTCHAR char78
ENCODING 78
SWIDTH 27 0
DWIDTH 14 0
BBX 13 9 2 0
BITMAP
FC78
2620
3B20
25A0
22E0
2160
20A0
20E0
F820
ENDCHAR

STARTCHAR char79
ENCODING 79
SWIDTH 27 0
DWIDTH 14 0
BBX 12 9 3 0
BITMAP
3F80
50E0
50A0
9090
9090
9090
90B0
6920
3FC0
ENDCHAR

STARTCHAR char80
ENCODING 80
SWIDTH 20 0
DWIDTH 13 0
BBX 12 9 2 0
BITMAP
FFE0
2850
2850
2850
2860
2FC0
2800
2800
3C00
ENDCHAR

STARTCHAR char81
ENCODING 81
SWIDTH 27 0
DWIDTH 14 0
BBX 13 10 3 -1
BITMAP
3F80
50E0
90A0
9090
9090
9390
96B0
4928
3970
0FF0
ENDCHAR

STARTCHAR char82
ENCODING 82
SWIDTH 20 0
DWIDTH 13 0
BBX 13 9 2 0
BITMAP
7FC0
28B0
2890
29F0
2E80
2A40
2960
29A0
FEF8
ENDCHAR

STARTCHAR char83
ENCODING 83
SWIDTH 20 0
DWIDTH 13 0
BBX 11 9 3 0
BITMAP
3F40
40C0
E040
BF00
40C0
7E60
41A0
6060
DFC0
ENDCHAR

STARTCHAR char84
ENCODING 84
SWIDTH 13 0
DWIDTH 12 0
BBX 11 9 2 0
BITMAP
FFE0
E660
C620
8A20
0A00
0A00
0A00
0A00
3F00
ENDCHAR

STARTCHAR char85
ENCODING 85
SWIDTH 20 0
DWIDTH 13 0
BBX 13 9 2 0
BITMAP
FEF8
4860
2820
2820
2820
2820
2820
2860
1F80
ENDCHAR

STARTCHAR char86
ENCODING 86
SWIDTH 20 0
DWIDTH 13 0
BBX 13 9 2 0
BITMAP
FEF8
2820
2420
1640
0A40
0B80
0500
0500
0700
ENDCHAR

STARTCHAR char87
ENCODING 87
SWIDTH 63 0
DWIDTH 19 0
BBX 19 9 3 0
BITMAP
FDFBE0
485180
244900
14A900
12A500
0B9600
091400
060C00
060C00
ENDCHAR

STARTCHAR char88
ENCODING 88
SWIDTH 27 0
DWIDTH 14 0
BBX 13 9 2 0
BITMAP
FEF8
2440
12C0
0900
0480
0480
0A40
1120
F9F8
ENDCHAR

STARTCHAR char89
ENCODING 89
SWIDTH 20 0
DWIDTH 13 0
BBX 13 9 2 0
BITMAP
FEF8
2C60
1440
1280
0980
0500
0500
0500
0FC0
ENDCHAR

STARTCHAR char90
ENCODING 90
SWIDTH 6 0
DWIDTH 11 0
BBX 10 9 2 0
BITMAP
FFC0
C480
8980
1100
2200
2440
4C40
99C0
FFC0
ENDCHAR

STARTCHAR char91
ENCODING 91
SWIDTH 43 0
DWIDTH 6 0
BBX 5 9 2 0
BITMAP
F8
A0
A0
A0
A0
A0
A0
A0
E0
ENDCHAR

STARTCHAR char92
ENCODING 92
SWIDTH 28 0
DWIDTH 4 0
BBX 4 9 0 0
BITMAP
80
80
40
40
40
20
20
20
10
ENDCHAR

STARTCHAR char93
ENCODING 93
SWIDTH 43 0
DWIDTH 6 0
BBX 4 9 1 0
BITMAP
F0
30
30
30
30
30
30
30
F0
ENDCHAR

STARTCHAR char94
ENCODING 94
SWIDTH 0 0
DWIDTH 0 0
BBX 5 3 -2 9
BITMAP
60
B0
B0
ENDCHAR

STARTCHAR char95
ENCODING 95
SWIDTH 50 0
DWIDTH 7 0
BBX 7 1 0 -2
BITMAP
FE
ENDCHAR

STARTCHAR char96
ENCODING 96
SWIDTH 0 0
DWIDTH 0 0
BBX 2 2 -2 8
BITMAP
C0
40
ENDCHAR

STARTCHAR char97
ENCODING 97
SWIDTH 6 0
DWIDTH 11 0
BBX 11 7 2 0
BITMAP
0C00
0C00
1A00
1A00
3900
2780
F3E0
ENDCHAR

STARTCHAR char98
ENCODING 98
SWIDTH 6 0
DWIDTH 11 0
BBX 8 7 3 0
BITMAP
FF
A5
A7
BB
A5
A5
FF
ENDCHAR

STARTCHAR char99
ENCODING 99
SWIDTH 71 0
DWIDTH 10 0
BBX 9 7 2 0
BITMAP
7F80
A180
A080
A000
A080
7180
3E00
ENDCHAR

STARTCHAR char100
ENCODING 100
SWIDTH 13 0
DWIDTH 12 0
BBX 11 7 2 0
BITMAP
FF80
5140
5120
5120
5120
5140
FF80
ENDCHAR

STARTCHAR char101
ENCODING 101
SWIDTH 6 0
DWIDTH 11 0
BBX 8 7 3 0
BITMAP
FF
A1
A4
BC
A5
A1
FF
ENDCHAR

STARTCHAR char102
ENCODING 102
SWIDTH 71 0
DWIDTH 10 0
BBX 9 7 2 0
BITMAP
FF80
5080
5200
5E00
5200
5000
7000
ENDCHAR

STARTCHAR char103
ENCODING 103
SWIDTH 13 0
DWIDTH 12 0
BBX 11 7 2 0
BITMAP
3F80
E080
A000
A7E0
A280
7280
3F80
ENDCHAR

STARTCHAR char104
ENCODING 104
SWIDTH 20 0
DWIDTH 13 0
BBX 12 7 2 0
BITMAP
FFF0
2940
2940
2F40
2940
2940
FFF0
ENDCHAR

STARTCHAR char105
ENCODING 105
SWIDTH 50 0
DWIDTH 7 0
BBX 6 7 1 0
BITMAP
FC
28
28
28
28
28
38
ENDCHAR

STARTCHAR char106
ENCODING 106
SWIDTH 57 0
DWIDTH 8 0
BBX 8 7 1 0
BITMAP
3F
14
14
14
74
B4
7C
ENDCHAR

STARTCHAR char107
ENCODING 107
SWIDTH 20 0
DWIDTH 13 0
BBX 12 7 2 0
BITMAP
38F0
2880
2B00
2D00
2A80
2940
FDF0
ENDCHAR

STARTCHAR char108
ENCODING 108
SWIDTH 71 0
DWIDTH 10 0
BBX 8 7 3 0
BITMAP
F8
A0
A0
A0
A1
A3
FF
ENDCHAR

STARTCHAR char109
ENCODING 109
SWIDTH 34 0
DWIDTH 15 0
BBX 14 7 2 0
BITMAP
3870
3450
34D0
2AD0
2550
2650
F2FC
ENDCHAR

STARTCHAR char110
ENCODING 110
SWIDTH 13 0
DWIDTH 12 0
BBX 11 7 2 0
BITMAP
78E0
7440
4A40
4540
4280
4140
F1C0
ENDCHAR

STARTCHAR char111
ENCODING 111
SWIDTH 13 0
DWIDTH 12 0
BBX 10 7 2 0
BITMAP
7F80
7140
A140
A140
A140
51C0
3F00
ENDCHAR

STARTCHAR char112
ENCODING 112
SWIDTH 6 0
DWIDTH 11 0
BBX 10 7 2 0
BITMAP
FFC0
5140
5140
5F80
5000
5000
FC00
ENDCHAR

STARTCHAR char113
ENCODING 113
SWIDTH 13 0
DWIDTH 12 0
BBX 11 8 2 -1
BITMAP
7F80
5140
9140
9140
9740
5B80
3FA0
00C0
ENDCHAR

STARTCHAR char114
ENCODING 114
SWIDTH 6 0
DWIDTH 11 0
BBX 10 7 2 0
BITMAP
7F80
5280
5680
5900
5500
5700
F3C0
ENDCHAR

STARTCHAR char115
ENCODING 115
SWIDTH 6 0
DWIDTH 11 0
BBX 9 7 2 0
BITMAP
7F00
C100
BE00
7180
4F80
C180
7F80
ENDCHAR

STARTCHAR char116
ENCODING 116
SWIDTH 71 0
DWIDTH 10 0
BBX 9 7 2 0
BITMAP
FF80
8C80
8C80
1400
1400
1400
3E00
ENDCHAR

STARTCHAR char117
ENCODING 117
SWIDTH 6 0
DWIDTH 11 0
BBX 10 7 2 0
BITMAP
FDC0
5080
5080
5080
5080
5080
3F00
ENDCHAR

STARTCHAR char118
ENCODING 118
SWIDTH 6 0
DWIDTH 11 0
BBX 10 7 2 0
BITMAP
FFC0
4880
2900
1500
1600
0A00
0400
ENDCHAR

STARTCHAR char119
ENCODING 119
SWIDTH 42 0
DWIDTH 16 0
BBX 16 7 2 0
BITMAP
3BC6
2924
15A4
155C
0A50
0A30
0E30
ENDCHAR

STARTCHAR char120
ENCODING 120
SWIDTH 13 0
DWIDTH 12 0
BBX 11 7 2 0
BITMAP
79E0
2700
1400
0A00
1500
2280
FBE0
ENDCHAR

STARTCHAR char121
ENCODING 121
SWIDTH 6 0
DWIDTH 11 0
BBX 10 7 2 0
BITMAP
F980
2900
2B00
1400
1400
1400
3F00
ENDCHAR

STARTCHAR char122
ENCODING 122
SWIDTH 64 0
DWIDTH 9 0
BBX 8 7 2 0
BITMAP
FF
8A
14
28
51
B3
FF
ENDCHAR

STARTCHAR char123
ENCODING 123
SWIDTH 35 0
DWIDTH 5 0
BBX 3 12 1 -3
BITMAP
60
40
40
40
C0
80
80
40
40
40
40
60
ENDCHAR

STARTCHAR char124
ENCODING 124
SWIDTH 28 0
DWIDTH 4 0
BBX 1 9 1 0
BITMAP
80
80
80
80
80
80
80
80
80
ENDCHAR

STARTCHAR char125
ENCODING 125
SWIDTH 35 0
DWIDTH 5 0
BBX 3 12 1 -3
BITMAP
80
40
40
40
40
20
40
40
40
40
40
C0
ENDCHAR

STARTCHAR char126
ENCODING 126
SWIDTH 0 0
DWIDTH 0 0
BBX 8 3 -4 9
BITMAP
31
7E
8C
ENDCHAR

STARTCHAR char128
ENCODING 128
SWIDTH 13 0
DWIDTH 12 0
BBX 12 9 1 0
BITMAP
0FD0
3430
2810
FE10
FE00
4800
2810
1420
0FC0
ENDCHAR

STARTCHAR char130
ENCODING 130
SWIDTH 28 0
DWIDTH 4 0
BBX 3 4 1 -2
BITMAP
E0
A0
60
40
ENDCHAR

STARTCHAR char131
ENCODING 131
SWIDTH 0 0
DWIDTH 0 0
BBX 5 3 -2 9
BITMAP
60
B0
B0
ENDCHAR

STARTCHAR char132
ENCODING 132
SWIDTH 43 0
DWIDTH 6 0
BBX 6 3 1 -1
BITMAP
6C
FC
24
ENDCHAR

STARTCHAR char133
ENCODING 133
SWIDTH 20 0
DWIDTH 13 0
BBX 9 1 2 0
BITMAP
8880
ENDCHAR

STARTCHAR char134
ENCODING 134
SWIDTH 57 0
DWIDTH 8 0
BBX 6 7 2 1
BITMAP
78
70
EC
FC
A4
30
38
ENDCHAR

STARTCHAR char136
ENCODING 136
SWIDTH 0 0
DWIDTH 0 0
BBX 4 2 -2 8
BITMAP
60
B0
ENDCHAR

STARTCHAR char139
ENCODING 139
SWIDTH 28 0
DWIDTH 4 0
BBX 2 5 1 1
BITMAP
40
40
80
40
40
ENDCHAR

STARTCHAR char140
ENCODING 140
SWIDTH 70 0
DWIDTH 20 0
BBX 18 9 4 0
BITMAP
3FFFC0
50A1C0
50A040
A0A600
A0BE00
A0A200
B0A040
50A1C0
3FFFC0
ENDCHAR

STARTCHAR char142
ENCODING 142
SWIDTH 13 0
DWIDTH 12 0
BBX 0 0 0 0
BITMAP
ENDCHAR

STARTCHAR char144
ENCODING 144
SWIDTH 13 0
DWIDTH 12 0
BBX 0 0 0 0
BITMAP
ENDCHAR

STARTCHAR char145
ENCODING 145
SWIDTH 21 0
DWIDTH 3 0
BBX 2 3 1 6
BITMAP
40
C0
C0
ENDCHAR

STARTCHAR char146
ENCODING 146
SWIDTH 21 0
DWIDTH 3 0
BBX 2 3 1 6
BITMAP
C0
C0
40
ENDCHAR

STARTCHAR char147
ENCODING 147
SWIDTH 43 0
DWIDTH 6 0
BBX 6 4 1 5
BITMAP
48
BC
B4
48
ENDCHAR

STARTCHAR char148
ENCODING 148
SWIDTH 43 0
DWIDTH 6 0
BBX 6 3 1 6
BITMAP
FC
FC
24
ENDCHAR

STARTCHAR char149
ENCODING 149
SWIDTH 28 0
DWIDTH 4 0
BBX 3 3 1 3
BITMAP
E0
E0
E0
ENDCHAR

STARTCHAR char150
ENCODING 150
SWIDTH 13 0
DWIDTH 12 0
BBX 10 1 2 4
BITMAP
FFC0
ENDCHAR

STARTCHAR char151
ENCODING 151
SWIDTH 64 0
DWIDTH 9 0
BBX 9 1 1 3
BITMAP
FF80
ENDCHAR

STARTCHAR char152
ENCODING 152
SWIDTH 0 0
DWIDTH 0 0
BBX 7 2 -3 8
BITMAP
E6
98
ENDCHAR

STARTCHAR char153
ENCODING 153
SWIDTH 56 0
DWIDTH 18 0
BBX 16 8 3 5
BITMAP
FF83
93C6
11C6
114A
116A
1132
1132
3997
ENDCHAR

STARTCHAR char155
ENCODING 155
SWIDTH 28 0
DWIDTH 4 0
BBX 2 5 1 1
BITMAP
80
80
40
C0
80
ENDCHAR

STARTCHAR char156
ENCODING 156
SWIDTH 49 0
DWIDTH 17 0
BBX 15 7 3 0
BITMAP
7FFE
6142
A178
A158
A14A
5146
3FFE
ENDCHAR

STARTCHAR char159
ENCODING 159
SWIDTH 20 0
DWIDTH 13 0
BBX 13 12 2 0
BITMAP
0900
1680
0D00
FEF8
2C60
1440
1680
0B80
0700
0700
0700
0FC0
ENDCHAR

STARTCHAR char160
ENCODING 160
SWIDTH 6 0
DWIDTH 11 0
BBX 0 0 0 0
BITMAP
ENDCHAR

STARTCHAR char161
ENCODING 161
SWIDTH 35 0
DWIDTH 5 0
BBX 3 9 1 0
BITMAP
60
A0
60
40
40
A0
A0
A0
E0
ENDCHAR

STARTCHAR char162
ENCODING 162
SWIDTH 71 0
DWIDTH 10 0
BBX 9 11 2 -2
BITMAP
0400
0400
7B80
A580
A480
A400
A480
6500
3E00
0400
0400
ENDCHAR

STARTCHAR char163
ENCODING 163
SWIDTH 13 0
DWIDTH 12 0
BBX 11 9 2 0
BITMAP
1FC0
28A0
28A0
2840
EF80
2800
2820
2860
FFE0
ENDCHAR

STARTCHAR char164
ENCODING 164
SWIDTH 0 0
DWIDTH 0 0
BBX 2 2 0 10
BITMAP
C0
80
ENDCHAR

STARTCHAR char165
ENCODING 165
SWIDTH 0 0
DWIDTH 0 0
BBX 4 3 -2 9
BITMAP
D0
B0
60
ENDCHAR

STARTCHAR char166
ENCODING 166
SWIDTH 13 0
DWIDTH 12 0
BBX 0 0 0 0
BITMAP
ENDCHAR

STARTCHAR char167
ENCODING 167
SWIDTH 71 0
DWIDTH 10 0
BBX 9 14 2 -4
BITMAP
0100
3F00
C100
F000
8F00
4100
FE80
F180
8F00
7980
4680
4280
FF00
8000
ENDCHAR

STARTCHAR char168
ENCODING 168
SWIDTH 0 0
DWIDTH 0 0
BBX 5 2 -3 8
BITMAP
78
78
ENDCHAR

STARTCHAR char169
ENCODING 169
SWIDTH 42 0
DWIDTH 16 0
BBX 14 13 3 0
BITMAP
0F80
1060
2010
47C8
4848
9844
9004
9004
9804
4C48
6790
3020
0FC0
ENDCHAR

STARTCHAR char170
ENCODING 170
SWIDTH 0 0
DWIDTH 0 0
BBX 6 3 -3 9
BITMAP
48
F4
28
ENDCHAR

STARTCHAR char171
ENCODING 171
SWIDTH 43 0
DWIDTH 6 0
BBX 5 4 1 2
BITMAP
48
50
50
48
ENDCHAR

STARTCHAR char172
ENCODING 172
SWIDTH 27 0
DWIDTH 14 0
BBX 13 5 2 0
BITMAP
FFF8
0008
0008
0008
0008
ENDCHAR

STARTCHAR char174
ENCODING 174
SWIDTH 42 0
DWIDTH 16 0
BBX 14 13 3 0
BITMAP
0780
1860
2010
4F88
4448
84C4
8704
8584
8484
4E68
4010
3030
0FC0
ENDCHAR

STARTCHAR char176
ENCODING 176
SWIDTH 57 0
DWIDTH 8 0
BBX 6 6 2 7
BITMAP
78
84
84
84
48
30
ENDCHAR

STARTCHAR char177
ENCODING 177
SWIDTH 6 0
DWIDTH 11 0
BBX 10 12 2 0
BITMAP
0800
0800
0800
0800
FFC0
0800
0800
0800
0800
0800
0000
FFC0
ENDCHAR

STARTCHAR char179
ENCODING 179
SWIDTH 13 0
DWIDTH 12 0
BBX 0 0 0 0
BITMAP
ENDCHAR

STARTCHAR char180
ENCODING 180
SWIDTH 0 0
DWIDTH 0 0
BBX 2 2 0 8
BITMAP
80
80
ENDCHAR

STARTCHAR char181
ENCODING 181
SWIDTH 13 0
DWIDTH 12 0
BBX 0 0 0 0
BITMAP
ENDCHAR

STARTCHAR char182
ENCODING 182
SWIDTH 64 0
DWIDTH 9 0
BBX 6 11 1 -2
BITMAP
7C
E8
E8
E8
68
28
28
28
28
28
28
ENDCHAR

STARTCHAR char183
ENCODING 183
SWIDTH 21 0
DWIDTH 3 0
BBX 1 1 1 3
BITMAP
80
ENDCHAR

STARTCHAR char184
ENCODING 184
SWIDTH 0 0
DWIDTH 0 0
BBX 3 3 -1 -3
BITMAP
E0
E0
40
ENDCHAR

STARTCHAR char185
ENCODING 185
SWIDTH 13 0
DWIDTH 12 0
BBX 0 0 0 0
BITMAP
ENDCHAR

STARTCHAR char186
ENCODING 186
SWIDTH 0 0
DWIDTH 0 0
BBX 8 3 -4 9
BITMAP
31
7E
8C
ENDCHAR

STARTCHAR char187
ENCODING 187
SWIDTH 43 0
DWIDTH 6 0
BBX 5 4 1 2
BITMAP
50
48
48
50
ENDCHAR

STARTCHAR char188
ENCODING 188
SWIDTH 13 0
DWIDTH 12 0
BBX 0 0 0 0
BITMAP
ENDCHAR

STARTCHAR char191
ENCODING 191
SWIDTH 57 0
DWIDTH 8 0
BBX 7 9 1 0
BITMAP
18
14
18
08
78
9C
BA
66
7E
ENDCHAR

STARTCHAR char192
ENCODING 192
SWIDTH 20 0
DWIDTH 13 0
BBX 13 12 2 0
BITMAP
0E00
0200
0200
0200
0600
0500
0D80
1480
12C0
3E40
6120
F3F0
ENDCHAR

STARTCHAR char193
ENCODING 193
SWIDTH 20 0
DWIDTH 13 0
BBX 13 12 2 0
BITMAP
0300
0200
0000
0200
0600
0500
0D80
1480
12C0
3E40
6120
F3F0
ENDCHAR

STARTCHAR char194
ENCODING 194
SWIDTH 20 0
DWIDTH 13 0
BBX 13 12 2 0
BITMAP
0300
0700
0980
0200
0600
0500
0D80
1480
12C0
3E40
6120
F3F0
ENDCHAR

STARTCHAR char195
ENCODING 195
SWIDTH 20 0
DWIDTH 13 0
BBX 13 12 2 0
BITMAP
0E40
1F40
1180
0200
0600
0500
0D80
1480
12C0
3E40
6120
F3F0
ENDCHAR

STARTCHAR char196
ENCODING 196
SWIDTH 20 0
DWIDTH 13 0
BBX 13 12 2 0
BITMAP
0D80
1F80
0000
0200
0600
0500
0D80
1480
12C0
3E40
2120
FBF0
ENDCHAR

STARTCHAR char197
ENCODING 197
SWIDTH 20 0
DWIDTH 13 0
BBX 13 12 2 0
BITMAP
0600
0500
0600
0200
0600
0500
0D80
1480
12C0
3E40
6120
F3F0
ENDCHAR

STARTCHAR char198
ENCODING 198
SWIDTH 63 0
DWIDTH 19 0
BBX 17 9 3 0
BITMAP
03FF80
02A380
02A080
04A400
08BC00
08A400
1FA080
20A180
FBFF80
ENDCHAR

STARTCHAR char199
ENCODING 199
SWIDTH 13 0
DWIDTH 12 0
BBX 11 12 2 -3
BITMAP
1FA0
7060
5020
9020
9000
9000
5020
2840
1B80
0600
0600
0200
ENDCHAR

STARTCHAR char200
ENCODING 200
SWIDTH 20 0
DWIDTH 13 0
BBX 11 12 2 0
BITMAP
0C00
0600
0200
7FE0
2860
2820
2880
2F80
2880
2820
2860
FFE0
ENDCHAR

STARTCHAR char201
ENCODING 201
SWIDTH 20 0
DWIDTH 13 0
BBX 11 12 2 0
BITMAP
0300
0200
0000
7FE0
2860
2820
2880
2F80
2880
2820
2860
FFE0
ENDCHAR

STARTCHAR char202
ENCODING 202
SWIDTH 20 0
DWIDTH 13 0
BBX 11 12 2 0
BITMAP
0700
0B00
0B00
7FE0
2860
2820
2880
2F80
2880
2820
2860
FFE0
ENDCHAR

STARTCHAR char203
ENCODING 203
SWIDTH 20 0
DWIDTH 13 0
BBX 11 12 2 0
BITMAP
0900
1E80
0500
7FE0
2C60
2C20
2C80
2F80
2C80
2C20
2C20
FFE0
ENDCHAR

STARTCHAR char204
ENCODING 204
SWIDTH 57 0
DWIDTH 8 0
BBX 7 12 2 0
BITMAP
60
30
10
EE
48
48
48
48
48
48
48
FE
ENDCHAR

STARTCHAR char205
ENCODING 205
SWIDTH 57 0
DWIDTH 8 0
BBX 7 12 2 0
BITMAP
18
10
00
FE
48
48
48
48
48
48
48
FE
ENDCHAR

STARTCHAR char206
ENCODING 206
SWIDTH 57 0
DWIDTH 8 0
BBX 7 12 2 0
BITMAP
38
58
5C
BE
48
48
48
48
48
48
48
FE
ENDCHAR

STARTCHAR char207
ENCODING 207
SWIDTH 57 0
DWIDTH 8 0
BBX 7 12 2 0
BITMAP
4C
FC
00
FE
58
58
58
58
58
58
58
FE
ENDCHAR

STARTCHAR char209
ENCODING 209
SWIDTH 27 0
DWIDTH 14 0
BBX 13 12 2 0
BITMAP
0E40
1F40
1180
FC78
2620
3B20
25A0
22E0
2160
20A0
20E0
F820
ENDCHAR

STARTCHAR char210
ENCODING 210
SWIDTH 27 0
DWIDTH 14 0
BBX 12 12 3 0
BITMAP
0C00
0600
0200
3F80
50E0
50A0
9090
9090
9090
90B0
6920
3FC0
ENDCHAR

STARTCHAR char211
ENCODING 211
SWIDTH 27 0
DWIDTH 14 0
BBX 12 12 3 0
BITMAP
0300
0200
0000
3F80
50E0
50A0
9090
9090
9090
90B0
6920
3FC0
ENDCHAR

STARTCHAR char212
ENCODING 212
SWIDTH 27 0
DWIDTH 14 0
BBX 12 12 3 0
BITMAP
0600
0B00
0B80
3E80
51E0
50A0
9090
9090
9090
90B0
6920
3FC0
ENDCHAR

STARTCHAR char213
ENCODING 213
SWIDTH 27 0
DWIDTH 14 0
BBX 12 12 3 0
BITMAP
0C40
1F80
1300
3E80
51E0
50A0
9090
9090
9090
50B0
6920
3FC0
ENDCHAR

STARTCHAR char214
ENCODING 214
SWIDTH 27 0
DWIDTH 14 0
BBX 12 13 3 -1
BITMAP
0900
1F80
0000
3F80
50E0
50A0
9090
B090
9090
90B0
50A0
39C0
0F00
ENDCHAR

STARTCHAR char216
ENCODING 216
SWIDTH 27 0
DWIDTH 14 0
BBX 12 10 3 -1
BITMAP
3FA0
50E0
91A0
9290
B490
9890
90B0
50A0
FFC0
4000
ENDCHAR

STARTCHAR char217
ENCODING 217
SWIDTH 20 0
DWIDTH 13 0
BBX 13 12 2 0
BITMAP
0E00
0200
0200
FEF8
4860
2820
2820
2820
2820
2820
2860
1F80
ENDCHAR

STARTCHAR char218
ENCODING 218
SWIDTH 20 0
DWIDTH 13 0
BBX 13 12 2 0
BITMAP
0300
0200
0000
FEF8
4860
2820
2820
2820
2820
2820
2860
1F80
ENDCHAR

STARTCHAR char219
ENCODING 219
SWIDTH 20 0
DWIDTH 13 0
BBX 13 12 2 0
BITMAP
0300
0F00
0980
FEF8
4860
2820
2820
2820
2820
2820
2860
1F80
ENDCHAR

STARTCHAR char220
ENCODING 220
SWIDTH 20 0
DWIDTH 13 0
BBX 13 12 2 0
BITMAP
07C0
07C0
0000
FEF8
2820
2820
2820
2820
2820
2820
2860
1F80
ENDCHAR

STARTCHAR char223
ENCODING 223
SWIDTH 63 0
DWIDTH 19 0
BBX 19 8 1 0
BITMAP
3E8F20
6190E0
A0B840
9F27C0
789E20
4791A0
A1B060
5F9FC0
ENDCHAR

STARTCHAR char224
ENCODING 224
SWIDTH 6 0
DWIDTH 11 0
BBX 11 10 2 0
BITMAP
0800
0800
0400
0C00
1400
2A00
2A00
7900
4780
F3E0
ENDCHAR

STARTCHAR char225
ENCODING 225
SWIDTH 6 0
DWIDTH 11 0
BBX 11 10 2 0
BITMAP
0600
0400
0400
0C00
1400
2A00
2A00
7900
4780
F3E0
ENDCHAR

STARTCHAR char226
ENCODING 226
SWIDTH 6 0
DWIDTH 11 0
BBX 11 10 2 0
BITMAP
0C00
1600
0400
0C00
1400
2A00
2A00
7900
4780
F3E0
ENDCHAR

STARTCHAR char227
ENCODING 227
SWIDTH 6 0
DWIDTH 11 0
BBX 11 10 2 0
BITMAP
1F00
2700
0400
0C00
0C00
1A00
1A00
3900
2780
F3E0
ENDCHAR

STARTCHAR char228
ENCODING 228
SWIDTH 6 0
DWIDTH 11 0
BBX 10 10 2 0
BITMAP
1E00
3E00
0400
0C00
0A00
3A00
2900
3900
4480
E780
ENDCHAR

STARTCHAR char229
ENCODING 229
SWIDTH 6 0
DWIDTH 11 0
BBX 10 10 2 0
BITMAP
0C00
0C00
0400
0C00
1400
2A00
2A00
7900
4680
F7C0
ENDCHAR

STARTCHAR char230
ENCODING 230
SWIDTH 42 0
DWIDTH 16 0
BBX 15 7 2 0
BITMAP
03FE
0742
0D48
0978
1F4A
2146
73FE
ENDCHAR

STARTCHAR char231
ENCODING 231
SWIDTH 71 0
DWIDTH 10 0
BBX 9 11 2 -3
BITMAP
1E80
7180
6180
A080
A000
A080
7180
3E00
1400
1C00
0800
ENDCHAR

STARTCHAR char232
ENCODING 232
SWIDTH 6 0
DWIDTH 11 0
BBX 8 10 3 0
BITMAP
30
10
00
FF
A1
A4
BC
A5
A1
FF
ENDCHAR

STARTCHAR char233
ENCODING 233
SWIDTH 6 0
DWIDTH 11 0
BBX 8 10 3 0
BITMAP
08
10
00
FF
A1
A4
BC
A5
A1
FF
ENDCHAR

STARTCHAR char234
ENCODING 234
SWIDTH 6 0
DWIDTH 11 0
BBX 9 10 2 0
BITMAP
0C00
1600
0000
FF80
5080
5200
5E00
5280
5080
7F80
ENDCHAR

STARTCHAR char235
ENCODING 235
SWIDTH 6 0
DWIDTH 11 0
BBX 9 10 2 0
BITMAP
1600
1600
0000
FF80
5080
5200
5E00
5280
5080
7F80
ENDCHAR

STARTCHAR char236
ENCODING 236
SWIDTH 50 0
DWIDTH 7 0
BBX 6 10 1 0
BITMAP
30
10
00
FC
28
28
28
28
28
38
ENDCHAR

STARTCHAR char237
ENCODING 237
SWIDTH 50 0
DWIDTH 7 0
BBX 6 10 1 0
BITMAP
30
20
00
FC
28
28
28
28
28
38
ENDCHAR

STARTCHAR char238
ENCODING 238
SWIDTH 50 0
DWIDTH 7 0
BBX 6 10 1 0
BITMAP
38
58
00
FC
28
28
28
28
28
38
ENDCHAR

STARTCHAR char239
ENCODING 239
SWIDTH 50 0
DWIDTH 7 0
BBX 6 10 1 0
BITMAP
48
78
00
FC
38
38
38
38
38
38
ENDCHAR

STARTCHAR char241
ENCODING 241
SWIDTH 13 0
DWIDTH 12 0
BBX 11 10 2 0
BITMAP
1D80
2600
0000
78E0
7440
4A40
4540
4280
4140
F1C0
ENDCHAR

STARTCHAR char242
ENCODING 242
SWIDTH 13 0
DWIDTH 12 0
BBX 10 10 2 0
BITMAP
1800
0400
0000
7F80
7140
A140
A140
A140
51C0
3F00
ENDCHAR

STARTCHAR char243
ENCODING 243
SWIDTH 13 0
DWIDTH 12 0
BBX 10 10 2 0
BITMAP
0600
0400
0000
7F80
7140
A140
A140
A140
51C0
3F00
ENDCHAR

STARTCHAR char244
ENCODING 244
SWIDTH 13 0
DWIDTH 12 0
BBX 10 10 2 0
BITMAP
0E00
0F00
0000
7F80
7140
A140
A140
A140
51C0
3F00
ENDCHAR

STARTCHAR char245
ENCODING 245
SWIDTH 13 0
DWIDTH 12 0
BBX 10 10 2 0
BITMAP
1D80
2600
0000
7F80
7140
A140
A140
A140
51C0
3F00
ENDCHAR

STARTCHAR char246
ENCODING 246
SWIDTH 13 0
DWIDTH 12 0
BBX 10 10 2 0
BITMAP
1E00
1F00
0000
7F80
5140
9140
9140
9140
51C0
3F00
ENDCHAR

STARTCHAR char247
ENCODING 247
SWIDTH 6 0
DWIDTH 11 0
BBX 10 8 2 1
BITMAP
0C00
0C00
0000
FFC0
0000
0000
0C00
0C00
ENDCHAR

STARTCHAR char248
ENCODING 248
SWIDTH 13 0
DWIDTH 12 0
BBX 10 7 2 0
BITMAP
7F80
5140
A740
A940
7140
51C0
FF00
ENDCHAR

STARTCHAR char249
ENCODING 249
SWIDTH 6 0
DWIDTH 11 0
BBX 10 10 2 0
BITMAP
0800
0800
0000
FDC0
5080
5080
5080
5080
5080
3F00
ENDCHAR

STARTCHAR char250
ENCODING 250
SWIDTH 6 0
DWIDTH 11 0
BBX 10 10 2 0
BITMAP
0600
0400
0000
FDC0
5080
5080
5080
5080
5080
3F00
ENDCHAR

STARTCHAR char251
ENCODING 251
SWIDTH 6 0
DWIDTH 11 0
BBX 10 10 2 0
BITMAP
0C00
1600
0000
FDC0
5080
5080
5080
5080
5080
3F00
ENDCHAR

STARTCHAR char252
ENCODING 252
SWIDTH 6 0
DWIDTH 11 0
BBX 10 10 2 0
BITMAP
0F00
0F00
0000
FDC0
5080
5080
5080
5080
5080
3F00
ENDCHAR

STARTCHAR char255
ENCODING 255
SWIDTH 6 0
DWIDTH 11 0
BBX 10 10 2 0
BITMAP
1A00
1E00
0000
FD80
2900
2D00
1600
1400
1400
3F00
ENDCHAR
ENDFONT
